<svg xmlns="http://www.w3.org/2000/svg" xmlns:xlink="http://www.w3.org/1999/xlink" width="500" zoomAndPan="magnify" viewBox="0 0 375 374.999991" height="500" preserveAspectRatio="xMidYMid meet" version="1.0"><defs><g/><clipPath id="66c9889f95"><path d="M 104.296875 122 L 164 122 L 164 193.589844 L 104.296875 193.589844 Z M 104.296875 122 " clip-rule="nonzero"/></clipPath><clipPath id="5896778def"><path d="M 123 103 L 194 103 L 194 193.589844 L 123 193.589844 Z M 123 103 " clip-rule="nonzero"/></clipPath><clipPath id="c2e00fdae2"><path d="M 179 103 L 251 103 L 251 193.589844 L 179 193.589844 Z M 179 103 " clip-rule="nonzero"/></clipPath><clipPath id="f9377762c3"><path d="M 233 155 L 270.796875 155 L 270.796875 193.589844 L 233 193.589844 Z M 233 155 " clip-rule="nonzero"/></clipPath></defs><g clip-path="url(#66c9889f95)"><path fill="#8c52ff" d="M 115.140625 125.074219 C 115.757812 124.71875 116.386719 124.394531 117.035156 124.101562 C 117.679688 123.804688 118.339844 123.546875 119.011719 123.316406 C 119.6875 123.089844 120.367188 122.894531 121.058594 122.730469 C 121.753906 122.570312 122.449219 122.441406 123.15625 122.351562 C 123.859375 122.257812 124.566406 122.199219 125.277344 122.175781 C 125.984375 122.152344 126.695312 122.164062 127.40625 122.210938 C 128.113281 122.257812 128.816406 122.335938 129.519531 122.453125 C 130.21875 122.570312 130.914062 122.71875 131.601562 122.902344 C 132.285156 123.085938 132.960938 123.304688 133.625 123.554688 C 134.292969 123.804688 134.941406 124.085938 135.578125 124.398438 C 136.214844 124.714844 136.835938 125.058594 137.441406 125.433594 C 138.042969 125.808594 138.625 126.214844 139.191406 126.644531 C 139.753906 127.078125 140.296875 127.535156 140.8125 128.023438 C 141.332031 128.507812 141.824219 129.019531 142.292969 129.550781 C 142.761719 130.085938 143.203125 130.644531 143.617188 131.21875 C 144.03125 131.796875 144.414062 132.394531 144.769531 133.007812 L 161.011719 161.167969 C 161.367188 161.78125 161.691406 162.414062 161.984375 163.058594 C 162.277344 163.707031 162.539062 164.367188 162.769531 165.039062 C 162.996094 165.710938 163.191406 166.394531 163.355469 167.085938 C 163.515625 167.777344 163.644531 168.476562 163.734375 169.179688 C 163.828125 169.886719 163.886719 170.59375 163.910156 171.300781 C 163.933594 172.011719 163.921875 172.722656 163.875 173.429688 C 163.828125 174.140625 163.75 174.84375 163.632812 175.546875 C 163.515625 176.246094 163.367188 176.941406 163.183594 177.625 C 163 178.3125 162.78125 178.988281 162.53125 179.652344 C 162.28125 180.316406 162 180.96875 161.6875 181.605469 C 161.371094 182.242188 161.027344 182.863281 160.652344 183.464844 C 160.277344 184.070312 159.871094 184.652344 159.441406 185.214844 C 159.007812 185.78125 158.546875 186.320312 158.0625 186.839844 C 157.578125 187.359375 157.066406 187.851562 156.53125 188.320312 C 156 188.789062 155.441406 189.230469 154.867188 189.640625 C 154.289062 190.054688 153.691406 190.441406 153.078125 190.796875 C 152.460938 191.152344 151.832031 191.476562 151.183594 191.769531 C 150.535156 192.0625 149.875 192.324219 149.203125 192.550781 C 148.53125 192.78125 147.847656 192.976562 147.15625 193.136719 C 146.464844 193.296875 145.765625 193.425781 145.0625 193.519531 C 144.359375 193.613281 143.652344 193.667969 142.941406 193.691406 C 142.230469 193.714844 141.523438 193.707031 140.8125 193.660156 C 140.105469 193.613281 139.398438 193.53125 138.699219 193.414062 C 137.996094 193.300781 137.304688 193.152344 136.617188 192.964844 C 135.929688 192.78125 135.253906 192.566406 134.589844 192.316406 C 133.925781 192.066406 133.273438 191.785156 132.636719 191.46875 C 132 191.15625 131.378906 190.808594 130.777344 190.433594 C 130.175781 190.058594 129.589844 189.65625 129.027344 189.222656 C 128.464844 188.789062 127.921875 188.332031 127.402344 187.847656 C 126.886719 187.359375 126.390625 186.851562 125.921875 186.316406 C 125.457031 185.78125 125.015625 185.226562 124.601562 184.648438 C 124.1875 184.070312 123.804688 183.476562 123.449219 182.859375 L 107.203125 154.691406 C 106.847656 154.074219 106.523438 153.445312 106.230469 152.796875 C 105.9375 152.152344 105.675781 151.492188 105.449219 150.820312 C 105.21875 150.144531 105.023438 149.464844 104.863281 148.773438 C 104.703125 148.082031 104.574219 147.382812 104.480469 146.679688 C 104.390625 145.972656 104.332031 145.265625 104.308594 144.554688 C 104.285156 143.847656 104.296875 143.136719 104.339844 142.429688 C 104.386719 141.71875 104.46875 141.015625 104.585938 140.3125 C 104.699219 139.613281 104.851562 138.917969 105.035156 138.234375 C 105.21875 137.546875 105.433594 136.871094 105.683594 136.207031 C 105.933594 135.539062 106.21875 134.890625 106.53125 134.253906 C 106.847656 133.617188 107.191406 132.996094 107.566406 132.390625 C 107.941406 131.789062 108.34375 131.207031 108.777344 130.640625 C 109.210938 130.078125 109.667969 129.539062 110.15625 129.019531 C 110.640625 128.5 111.148438 128.007812 111.683594 127.539062 C 112.21875 127.070312 112.773438 126.628906 113.351562 126.214844 C 113.929688 125.800781 114.527344 125.417969 115.140625 125.0625 Z M 115.140625 125.074219 " fill-opacity="1" fill-rule="evenodd"/></g><g clip-path="url(#5896778def)"><path fill="#8c52ff" d="M 183 105.964844 C 182.386719 105.609375 181.753906 105.28125 181.109375 104.988281 C 180.460938 104.695312 179.800781 104.433594 179.128906 104.207031 C 178.457031 103.976562 177.773438 103.78125 177.082031 103.621094 C 176.390625 103.460938 175.691406 103.332031 174.988281 103.238281 C 174.285156 103.148438 173.578125 103.089844 172.867188 103.066406 C 172.15625 103.042969 171.445312 103.054688 170.738281 103.101562 C 170.027344 103.144531 169.324219 103.226562 168.621094 103.34375 C 167.921875 103.457031 167.226562 103.609375 166.542969 103.792969 C 165.855469 103.976562 165.179688 104.191406 164.515625 104.441406 C 163.851562 104.691406 163.199219 104.976562 162.5625 105.289062 C 161.925781 105.605469 161.304688 105.949219 160.703125 106.324219 C 160.097656 106.699219 159.515625 107.101562 158.953125 107.535156 C 158.386719 107.96875 157.847656 108.425781 157.328125 108.914062 C 156.808594 109.398438 156.316406 109.90625 155.847656 110.441406 C 155.378906 110.976562 154.9375 111.53125 154.527344 112.109375 C 154.113281 112.6875 153.726562 113.285156 153.371094 113.898438 L 126.09375 161.167969 C 125.738281 161.78125 125.414062 162.414062 125.121094 163.058594 C 124.828125 163.707031 124.566406 164.367188 124.339844 165.039062 C 124.109375 165.710938 123.914062 166.394531 123.753906 167.085938 C 123.59375 167.777344 123.464844 168.476562 123.375 169.179688 C 123.28125 169.882812 123.222656 170.589844 123.199219 171.300781 C 123.175781 172.011719 123.1875 172.722656 123.234375 173.429688 C 123.28125 174.136719 123.363281 174.84375 123.476562 175.542969 C 123.59375 176.246094 123.742188 176.9375 123.925781 177.625 C 124.109375 178.3125 124.328125 178.984375 124.578125 179.652344 C 124.828125 180.316406 125.109375 180.96875 125.421875 181.605469 C 125.738281 182.242188 126.082031 182.859375 126.457031 183.464844 C 126.832031 184.066406 127.234375 184.652344 127.667969 185.214844 C 128.101562 185.777344 128.558594 186.320312 129.042969 186.839844 C 129.53125 187.355469 130.039062 187.851562 130.574219 188.320312 C 131.109375 188.785156 131.664062 189.226562 132.242188 189.640625 C 132.816406 190.054688 133.414062 190.441406 134.03125 190.796875 C 134.644531 191.152344 135.277344 191.476562 135.921875 191.769531 C 136.570312 192.0625 137.230469 192.320312 137.902344 192.550781 C 138.574219 192.777344 139.257812 192.972656 139.949219 193.132812 C 140.640625 193.296875 141.339844 193.421875 142.042969 193.515625 C 142.746094 193.609375 143.453125 193.667969 144.164062 193.691406 C 144.875 193.710938 145.582031 193.703125 146.292969 193.65625 C 147 193.609375 147.707031 193.527344 148.40625 193.410156 C 149.105469 193.296875 149.800781 193.144531 150.488281 192.960938 C 151.171875 192.777344 151.847656 192.5625 152.511719 192.3125 C 153.179688 192.0625 153.828125 191.78125 154.464844 191.464844 C 155.101562 191.152344 155.722656 190.808594 156.328125 190.433594 C 156.929688 190.058594 157.511719 189.652344 158.078125 189.21875 C 158.640625 188.789062 159.179688 188.328125 159.699219 187.84375 C 160.21875 187.359375 160.710938 186.847656 161.179688 186.316406 C 161.648438 185.78125 162.089844 185.226562 162.503906 184.648438 C 162.917969 184.070312 163.300781 183.472656 163.65625 182.859375 L 190.9375 135.582031 C 191.292969 134.964844 191.617188 134.335938 191.910156 133.6875 C 192.207031 133.042969 192.464844 132.382812 192.695312 131.707031 C 192.925781 131.035156 193.121094 130.355469 193.28125 129.660156 C 193.441406 128.96875 193.570312 128.273438 193.664062 127.566406 C 193.757812 126.863281 193.816406 126.15625 193.839844 125.445312 C 193.863281 124.734375 193.851562 124.027344 193.804688 123.316406 C 193.757812 122.609375 193.675781 121.902344 193.5625 121.203125 C 193.445312 120.5 193.296875 119.808594 193.113281 119.121094 C 192.929688 118.433594 192.710938 117.757812 192.460938 117.09375 C 192.210938 116.429688 191.929688 115.777344 191.613281 115.140625 C 191.300781 114.503906 190.957031 113.882812 190.578125 113.28125 C 190.203125 112.675781 189.800781 112.09375 189.367188 111.53125 C 188.933594 110.964844 188.476562 110.425781 187.988281 109.90625 C 187.503906 109.390625 186.992188 108.894531 186.460938 108.425781 C 185.925781 107.960938 185.367188 107.519531 184.792969 107.105469 C 184.214844 106.691406 183.617188 106.308594 183 105.953125 Z M 183 105.964844 " fill-opacity="1" fill-rule="evenodd"/></g><g clip-path="url(#c2e00fdae2)"><path fill="#ffde59" d="M 239.601562 105.964844 C 238.988281 105.609375 238.355469 105.28125 237.707031 104.988281 C 237.0625 104.695312 236.402344 104.433594 235.730469 104.207031 C 235.058594 103.976562 234.375 103.78125 233.683594 103.621094 C 232.992188 103.460938 232.292969 103.332031 231.589844 103.238281 C 230.882812 103.148438 230.175781 103.089844 229.46875 103.066406 C 228.757812 103.042969 228.046875 103.054688 227.339844 103.101562 C 226.628906 103.144531 225.925781 103.226562 225.222656 103.34375 C 224.523438 103.457031 223.828125 103.609375 223.144531 103.792969 C 222.457031 103.976562 221.78125 104.191406 221.117188 104.441406 C 220.453125 104.691406 219.800781 104.976562 219.164062 105.289062 C 218.527344 105.605469 217.90625 105.949219 217.304688 106.324219 C 216.699219 106.699219 216.117188 107.101562 215.550781 107.535156 C 214.988281 107.96875 214.449219 108.425781 213.929688 108.914062 C 213.410156 109.398438 212.917969 109.90625 212.449219 110.441406 C 211.980469 110.976562 211.539062 111.53125 211.125 112.109375 C 210.710938 112.6875 210.328125 113.285156 209.972656 113.898438 L 182.695312 161.167969 C 182.339844 161.78125 182.015625 162.414062 181.722656 163.058594 C 181.425781 163.707031 181.167969 164.367188 180.9375 165.039062 C 180.710938 165.710938 180.515625 166.394531 180.351562 167.085938 C 180.191406 167.777344 180.0625 168.476562 179.972656 169.179688 C 179.878906 169.886719 179.820312 170.59375 179.796875 171.300781 C 179.773438 172.011719 179.785156 172.722656 179.832031 173.429688 C 179.878906 174.140625 179.957031 174.84375 180.074219 175.546875 C 180.191406 176.246094 180.339844 176.941406 180.523438 177.625 C 180.707031 178.3125 180.921875 178.988281 181.175781 179.652344 C 181.425781 180.316406 181.707031 180.96875 182.019531 181.605469 C 182.335938 182.242188 182.679688 182.863281 183.054688 183.464844 C 183.429688 184.070312 183.832031 184.652344 184.265625 185.214844 C 184.699219 185.78125 185.15625 186.320312 185.644531 186.839844 C 186.128906 187.359375 186.640625 187.851562 187.171875 188.320312 C 187.707031 188.789062 188.261719 189.230469 188.839844 189.640625 C 189.417969 190.054688 190.015625 190.441406 190.628906 190.796875 C 191.246094 191.152344 191.875 191.476562 192.523438 191.769531 C 193.171875 192.0625 193.832031 192.324219 194.503906 192.550781 C 195.175781 192.78125 195.859375 192.976562 196.550781 193.136719 C 197.242188 193.296875 197.9375 193.425781 198.644531 193.519531 C 199.347656 193.613281 200.054688 193.667969 200.765625 193.691406 C 201.476562 193.714844 202.183594 193.707031 202.894531 193.660156 C 203.601562 193.613281 204.308594 193.53125 205.007812 193.414062 C 205.710938 193.300781 206.402344 193.152344 207.089844 192.964844 C 207.773438 192.78125 208.449219 192.566406 209.117188 192.316406 C 209.78125 192.066406 210.429688 191.785156 211.070312 191.46875 C 211.707031 191.15625 212.324219 190.808594 212.929688 190.433594 C 213.53125 190.058594 214.117188 189.65625 214.679688 189.222656 C 215.242188 188.789062 215.785156 188.332031 216.300781 187.847656 C 216.820312 187.359375 217.3125 186.851562 217.78125 186.316406 C 218.25 185.78125 218.691406 185.226562 219.105469 184.648438 C 219.519531 184.070312 219.902344 183.476562 220.257812 182.859375 L 247.546875 135.589844 C 247.902344 134.976562 248.230469 134.34375 248.523438 133.699219 C 248.816406 133.050781 249.078125 132.390625 249.304688 131.71875 C 249.535156 131.046875 249.730469 130.363281 249.890625 129.671875 C 250.050781 128.980469 250.179688 128.28125 250.273438 127.578125 C 250.363281 126.875 250.421875 126.167969 250.445312 125.457031 C 250.46875 124.746094 250.457031 124.039062 250.410156 123.328125 C 250.367188 122.621094 250.285156 121.914062 250.167969 121.214844 C 250.054688 120.511719 249.902344 119.820312 249.71875 119.132812 C 249.535156 118.445312 249.320312 117.769531 249.070312 117.105469 C 248.820312 116.441406 248.535156 115.789062 248.222656 115.152344 C 247.90625 114.515625 247.5625 113.894531 247.1875 113.292969 C 246.8125 112.6875 246.410156 112.105469 245.976562 111.542969 C 245.542969 110.980469 245.085938 110.4375 244.597656 109.917969 C 244.113281 109.402344 243.605469 108.90625 243.070312 108.4375 C 242.535156 107.972656 241.980469 107.53125 241.402344 107.117188 C 240.824219 106.703125 240.226562 106.316406 239.613281 105.964844 Z M 239.601562 105.964844 " fill-opacity="1" fill-rule="evenodd"/></g><g clip-path="url(#f9377762c3)"><path fill="#ffde59" d="M 233.222656 174.488281 C 233.222656 173.875 233.25 173.261719 233.3125 172.652344 C 233.371094 172.042969 233.460938 171.433594 233.582031 170.832031 C 233.699219 170.230469 233.851562 169.636719 234.027344 169.050781 C 234.207031 168.460938 234.414062 167.886719 234.648438 167.316406 C 234.882812 166.75 235.144531 166.195312 235.433594 165.65625 C 235.722656 165.113281 236.039062 164.589844 236.378906 164.078125 C 236.71875 163.566406 237.085938 163.074219 237.476562 162.601562 C 237.863281 162.125 238.277344 161.671875 238.710938 161.238281 C 239.144531 160.804688 239.597656 160.390625 240.074219 160.003906 C 240.546875 159.613281 241.039062 159.25 241.550781 158.90625 C 242.058594 158.566406 242.585938 158.25 243.128906 157.960938 C 243.667969 157.671875 244.222656 157.410156 244.789062 157.175781 C 245.355469 156.941406 245.933594 156.734375 246.519531 156.554688 C 247.109375 156.378906 247.703125 156.230469 248.304688 156.109375 C 248.90625 155.988281 249.511719 155.898438 250.125 155.839844 C 250.734375 155.78125 251.347656 155.75 251.960938 155.75 C 252.574219 155.75 253.1875 155.78125 253.796875 155.839844 C 254.410156 155.898438 255.015625 155.988281 255.617188 156.109375 C 256.21875 156.230469 256.8125 156.378906 257.402344 156.554688 C 257.988281 156.734375 258.566406 156.941406 259.132812 157.175781 C 259.699219 157.410156 260.253906 157.671875 260.796875 157.960938 C 261.335938 158.25 261.863281 158.566406 262.371094 158.90625 C 262.882812 159.25 263.375 159.613281 263.851562 160.003906 C 264.324219 160.390625 264.777344 160.804688 265.210938 161.238281 C 265.644531 161.671875 266.058594 162.125 266.449219 162.601562 C 266.835938 163.074219 267.203125 163.566406 267.542969 164.078125 C 267.882812 164.589844 268.199219 165.113281 268.488281 165.65625 C 268.777344 166.195312 269.039062 166.75 269.273438 167.316406 C 269.507812 167.886719 269.714844 168.460938 269.894531 169.050781 C 270.074219 169.636719 270.222656 170.230469 270.339844 170.832031 C 270.460938 171.433594 270.550781 172.042969 270.609375 172.652344 C 270.671875 173.261719 270.703125 173.875 270.703125 174.488281 C 270.703125 175.101562 270.671875 175.714844 270.609375 176.328125 C 270.550781 176.9375 270.460938 177.542969 270.339844 178.144531 C 270.222656 178.746094 270.074219 179.34375 269.894531 179.929688 C 269.714844 180.515625 269.507812 181.09375 269.273438 181.660156 C 269.039062 182.226562 268.777344 182.78125 268.488281 183.324219 C 268.199219 183.863281 267.882812 184.390625 267.542969 184.902344 C 267.203125 185.410156 266.835938 185.902344 266.449219 186.378906 C 266.058594 186.851562 265.644531 187.304688 265.210938 187.742188 C 264.777344 188.175781 264.324219 188.585938 263.851562 188.976562 C 263.375 189.363281 262.882812 189.730469 262.371094 190.070312 C 261.863281 190.414062 261.335938 190.726562 260.796875 191.015625 C 260.253906 191.304688 259.699219 191.566406 259.132812 191.804688 C 258.566406 192.039062 257.988281 192.246094 257.402344 192.421875 C 256.8125 192.601562 256.21875 192.75 255.617188 192.871094 C 255.015625 192.988281 254.410156 193.078125 253.796875 193.140625 C 253.1875 193.199219 252.574219 193.230469 251.960938 193.230469 C 251.347656 193.230469 250.734375 193.199219 250.125 193.140625 C 249.511719 193.078125 248.90625 192.988281 248.304688 192.871094 C 247.703125 192.75 247.109375 192.601562 246.519531 192.421875 C 245.933594 192.246094 245.355469 192.039062 244.789062 191.804688 C 244.222656 191.566406 243.667969 191.304688 243.128906 191.015625 C 242.585938 190.726562 242.058594 190.414062 241.550781 190.070312 C 241.039062 189.730469 240.546875 189.363281 240.074219 188.976562 C 239.597656 188.585938 239.144531 188.175781 238.710938 187.742188 C 238.277344 187.304688 237.863281 186.851562 237.476562 186.378906 C 237.085938 185.902344 236.71875 185.410156 236.378906 184.902344 C 236.039062 184.390625 235.722656 183.863281 235.433594 183.324219 C 235.144531 182.78125 234.882812 182.226562 234.648438 181.660156 C 234.414062 181.09375 234.207031 180.515625 234.027344 179.929688 C 233.851562 179.34375 233.699219 178.746094 233.582031 178.144531 C 233.460938 177.542969 233.371094 176.9375 233.3125 176.328125 C 233.25 175.714844 233.222656 175.101562 233.222656 174.488281 Z M 233.222656 174.488281 " fill-opacity="1" fill-rule="evenodd"/></g><g fill="#000000" fill-opacity="1"><g transform="translate(48.069948, 244.503423)"><g><path d="M 10.15625 0 L 1.203125 -33.828125 L 7.828125 -33.828125 L 13.921875 -6.90625 L 21.078125 -33.828125 L 27.890625 -33.828125 L 34.84375 -6.90625 L 40.9375 -33.828125 L 47.609375 -33.828125 L 38.421875 0 L 31.078125 0 L 24.359375 -25.078125 L 17.453125 0 Z M 10.15625 0 "/></g></g></g><g fill="#000000" fill-opacity="1"><g transform="translate(94.706762, 244.503423)"><g><path d="M 3.140625 0 L 3.140625 -34.796875 L 9.328125 -34.796875 L 9.328125 -20.296875 C 10.128906 -21.617188 11.210938 -22.65625 12.578125 -23.40625 C 13.953125 -24.164062 15.523438 -24.546875 17.296875 -24.546875 C 20.265625 -24.546875 22.5625 -23.609375 24.1875 -21.734375 C 25.8125 -19.867188 26.625 -17.132812 26.625 -13.53125 L 26.625 0 L 20.484375 0 L 20.484375 -12.953125 C 20.484375 -15.015625 20.070312 -16.59375 19.25 -17.6875 C 18.4375 -18.78125 17.144531 -19.328125 15.375 -19.328125 C 13.632812 -19.328125 12.191406 -18.710938 11.046875 -17.484375 C 9.898438 -16.265625 9.328125 -14.5625 9.328125 -12.375 L 9.328125 0 Z M 3.140625 0 "/></g></g></g><g fill="#000000" fill-opacity="1"><g transform="translate(121.9156, 244.503423)"><g><path d="M 14.78125 0.578125 C 12.363281 0.578125 10.222656 0.0625 8.359375 -0.96875 C 6.492188 -2 5.03125 -3.445312 3.96875 -5.3125 C 2.90625 -7.1875 2.375 -9.347656 2.375 -11.796875 C 2.375 -14.273438 2.894531 -16.476562 3.9375 -18.40625 C 4.988281 -20.34375 6.4375 -21.847656 8.28125 -22.921875 C 10.132812 -24.003906 12.320312 -24.546875 14.84375 -24.546875 C 17.1875 -24.546875 19.257812 -24.03125 21.0625 -23 C 22.875 -21.96875 24.285156 -20.554688 25.296875 -18.765625 C 26.316406 -16.984375 26.828125 -15 26.828125 -12.8125 C 26.828125 -12.457031 26.816406 -12.082031 26.796875 -11.6875 C 26.785156 -11.300781 26.757812 -10.898438 26.71875 -10.484375 L 8.5 -10.484375 C 8.632812 -8.617188 9.289062 -7.15625 10.46875 -6.09375 C 11.644531 -5.03125 13.066406 -4.5 14.734375 -4.5 C 15.992188 -4.5 17.050781 -4.78125 17.90625 -5.34375 C 18.757812 -5.90625 19.394531 -6.640625 19.8125 -7.546875 L 26.09375 -7.546875 C 25.644531 -6.023438 24.894531 -4.644531 23.84375 -3.40625 C 22.800781 -2.164062 21.515625 -1.191406 19.984375 -0.484375 C 18.453125 0.222656 16.71875 0.578125 14.78125 0.578125 Z M 14.84375 -19.53125 C 13.320312 -19.53125 11.976562 -19.101562 10.8125 -18.25 C 9.65625 -17.394531 8.921875 -16.097656 8.609375 -14.359375 L 20.546875 -14.359375 C 20.441406 -15.929688 19.859375 -17.1875 18.796875 -18.125 C 17.734375 -19.0625 16.414062 -19.53125 14.84375 -19.53125 Z M 14.84375 -19.53125 "/></g></g></g><g fill="#000000" fill-opacity="1"><g transform="translate(148.641157, 244.503423)"><g><path d="M 3.140625 0 L 3.140625 -23.96875 L 8.65625 -23.96875 L 9.234375 -19.46875 C 10.097656 -21.019531 11.28125 -22.253906 12.78125 -23.171875 C 14.28125 -24.085938 16.046875 -24.546875 18.078125 -24.546875 L 18.078125 -18.03125 L 16.328125 -18.03125 C 14.984375 -18.03125 13.773438 -17.816406 12.703125 -17.390625 C 11.640625 -16.972656 10.8125 -16.25 10.21875 -15.21875 C 9.625 -14.1875 9.328125 -12.753906 9.328125 -10.921875 L 9.328125 0 Z M 3.140625 0 "/></g></g></g><g fill="#000000" fill-opacity="1"><g transform="translate(165.604391, 244.503423)"><g><path d="M 14.78125 0.578125 C 12.363281 0.578125 10.222656 0.0625 8.359375 -0.96875 C 6.492188 -2 5.03125 -3.445312 3.96875 -5.3125 C 2.90625 -7.1875 2.375 -9.347656 2.375 -11.796875 C 2.375 -14.273438 2.894531 -16.476562 3.9375 -18.40625 C 4.988281 -20.34375 6.4375 -21.847656 8.28125 -22.921875 C 10.132812 -24.003906 12.320312 -24.546875 14.84375 -24.546875 C 17.1875 -24.546875 19.257812 -24.03125 21.0625 -23 C 22.875 -21.96875 24.285156 -20.554688 25.296875 -18.765625 C 26.316406 -16.984375 26.828125 -15 26.828125 -12.8125 C 26.828125 -12.457031 26.816406 -12.082031 26.796875 -11.6875 C 26.785156 -11.300781 26.757812 -10.898438 26.71875 -10.484375 L 8.5 -10.484375 C 8.632812 -8.617188 9.289062 -7.15625 10.46875 -6.09375 C 11.644531 -5.03125 13.066406 -4.5 14.734375 -4.5 C 15.992188 -4.5 17.050781 -4.78125 17.90625 -5.34375 C 18.757812 -5.90625 19.394531 -6.640625 19.8125 -7.546875 L 26.09375 -7.546875 C 25.644531 -6.023438 24.894531 -4.644531 23.84375 -3.40625 C 22.800781 -2.164062 21.515625 -1.191406 19.984375 -0.484375 C 18.453125 0.222656 16.71875 0.578125 14.78125 0.578125 Z M 14.84375 -19.53125 C 13.320312 -19.53125 11.976562 -19.101562 10.8125 -18.25 C 9.65625 -17.394531 8.921875 -16.097656 8.609375 -14.359375 L 20.546875 -14.359375 C 20.441406 -15.929688 19.859375 -17.1875 18.796875 -18.125 C 17.734375 -19.0625 16.414062 -19.53125 14.84375 -19.53125 Z M 14.84375 -19.53125 "/></g></g></g><g fill="#000000" fill-opacity="1"><g transform="translate(192.329942, 244.503423)"><g><path d="M 6.46875 -27.6875 C 5.34375 -27.6875 4.414062 -28.023438 3.6875 -28.703125 C 2.96875 -29.378906 2.609375 -30.234375 2.609375 -31.265625 C 2.609375 -32.296875 2.96875 -33.140625 3.6875 -33.796875 C 4.414062 -34.460938 5.34375 -34.796875 6.46875 -34.796875 C 7.601562 -34.796875 8.53125 -34.460938 9.25 -33.796875 C 9.976562 -33.140625 10.34375 -32.296875 10.34375 -31.265625 C 10.34375 -30.234375 9.976562 -29.378906 9.25 -28.703125 C 8.53125 -28.023438 7.601562 -27.6875 6.46875 -27.6875 Z M 3.390625 0 L 3.390625 -23.96875 L 9.5625 -23.96875 L 9.5625 0 Z M 3.390625 0 "/></g></g></g><g fill="#000000" fill-opacity="1"><g transform="translate(203.058816, 244.503423)"><g><path d="M 13.046875 0.578125 C 10.921875 0.578125 9.050781 0.234375 7.4375 -0.453125 C 5.832031 -1.148438 4.546875 -2.109375 3.578125 -3.328125 C 2.609375 -4.554688 2.03125 -5.976562 1.84375 -7.59375 L 8.078125 -7.59375 C 8.265625 -6.65625 8.785156 -5.851562 9.640625 -5.1875 C 10.492188 -4.53125 11.597656 -4.203125 12.953125 -4.203125 C 14.304688 -4.203125 15.296875 -4.472656 15.921875 -5.015625 C 16.546875 -5.566406 16.859375 -6.195312 16.859375 -6.90625 C 16.859375 -7.9375 16.40625 -8.632812 15.5 -9 C 14.601562 -9.375 13.351562 -9.738281 11.75 -10.09375 C 10.71875 -10.320312 9.664062 -10.597656 8.59375 -10.921875 C 7.53125 -11.242188 6.554688 -11.65625 5.671875 -12.15625 C 4.785156 -12.65625 4.066406 -13.296875 3.515625 -14.078125 C 2.972656 -14.867188 2.703125 -15.847656 2.703125 -17.015625 C 2.703125 -19.140625 3.546875 -20.925781 5.234375 -22.375 C 6.929688 -23.820312 9.3125 -24.546875 12.375 -24.546875 C 15.207031 -24.546875 17.46875 -23.882812 19.15625 -22.5625 C 20.851562 -21.25 21.863281 -19.429688 22.1875 -17.109375 L 16.328125 -17.109375 C 15.972656 -18.878906 14.640625 -19.765625 12.328125 -19.765625 C 11.160156 -19.765625 10.265625 -19.535156 9.640625 -19.078125 C 9.015625 -18.628906 8.703125 -18.066406 8.703125 -17.390625 C 8.703125 -16.679688 9.164062 -16.117188 10.09375 -15.703125 C 11.03125 -15.285156 12.273438 -14.898438 13.828125 -14.546875 C 15.492188 -14.160156 17.03125 -13.734375 18.4375 -13.265625 C 19.84375 -12.796875 20.960938 -12.101562 21.796875 -11.1875 C 22.628906 -10.269531 23.046875 -8.957031 23.046875 -7.25 C 23.078125 -5.769531 22.691406 -4.429688 21.890625 -3.234375 C 21.085938 -2.046875 19.925781 -1.113281 18.40625 -0.4375 C 16.894531 0.238281 15.109375 0.578125 13.046875 0.578125 Z M 13.046875 0.578125 "/></g></g></g><g fill="#000000" fill-opacity="1"><g transform="translate(226.256397, 244.503423)"><g><path d="M 18.609375 0.578125 C 15.191406 0.578125 12.257812 -0.148438 9.8125 -1.609375 C 7.363281 -3.078125 5.476562 -5.125 4.15625 -7.75 C 2.832031 -10.382812 2.171875 -13.421875 2.171875 -16.859375 C 2.171875 -20.304688 2.832031 -23.351562 4.15625 -26 C 5.476562 -28.644531 7.363281 -30.707031 9.8125 -32.1875 C 12.257812 -33.664062 15.191406 -34.40625 18.609375 -34.40625 C 22.671875 -34.40625 25.992188 -33.398438 28.578125 -31.390625 C 31.171875 -29.378906 32.789062 -26.550781 33.4375 -22.90625 L 26.625 -22.90625 C 26.207031 -24.738281 25.3125 -26.175781 23.9375 -27.21875 C 22.570312 -28.269531 20.765625 -28.796875 18.515625 -28.796875 C 15.390625 -28.796875 12.9375 -27.734375 11.15625 -25.609375 C 9.382812 -23.484375 8.5 -20.566406 8.5 -16.859375 C 8.5 -13.160156 9.382812 -10.253906 11.15625 -8.140625 C 12.9375 -6.035156 15.390625 -4.984375 18.515625 -4.984375 C 20.765625 -4.984375 22.570312 -5.472656 23.9375 -6.453125 C 25.3125 -7.429688 26.207031 -8.789062 26.625 -10.53125 L 33.4375 -10.53125 C 32.789062 -7.050781 31.171875 -4.328125 28.578125 -2.359375 C 25.992188 -0.398438 22.671875 0.578125 18.609375 0.578125 Z M 18.609375 0.578125 "/></g></g></g><g fill="#000000" fill-opacity="1"><g transform="translate(259.699581, 244.503423)"><g><path d="M 14.640625 0.578125 C 12.316406 0.578125 10.226562 0.046875 8.375 -1.015625 C 6.53125 -2.078125 5.066406 -3.550781 3.984375 -5.4375 C 2.910156 -7.320312 2.375 -9.503906 2.375 -11.984375 C 2.375 -14.460938 2.921875 -16.644531 4.015625 -18.53125 C 5.109375 -20.414062 6.582031 -21.890625 8.4375 -22.953125 C 10.289062 -24.015625 12.375 -24.546875 14.6875 -24.546875 C 16.976562 -24.546875 19.050781 -24.015625 20.90625 -22.953125 C 22.757812 -21.890625 24.222656 -20.414062 25.296875 -18.53125 C 26.378906 -16.644531 26.921875 -14.460938 26.921875 -11.984375 C 26.921875 -9.503906 26.378906 -7.320312 25.296875 -5.4375 C 24.222656 -3.550781 22.75 -2.078125 20.875 -1.015625 C 19.007812 0.046875 16.929688 0.578125 14.640625 0.578125 Z M 14.640625 -4.78125 C 16.253906 -4.78125 17.65625 -5.382812 18.84375 -6.59375 C 20.039062 -7.800781 20.640625 -9.597656 20.640625 -11.984375 C 20.640625 -14.367188 20.039062 -16.164062 18.84375 -17.375 C 17.65625 -18.582031 16.269531 -19.1875 14.6875 -19.1875 C 13.050781 -19.1875 11.644531 -18.582031 10.46875 -17.375 C 9.289062 -16.164062 8.703125 -14.367188 8.703125 -11.984375 C 8.703125 -9.597656 9.289062 -7.800781 10.46875 -6.59375 C 11.644531 -5.382812 13.035156 -4.78125 14.640625 -4.78125 Z M 14.640625 -4.78125 "/></g></g></g><g fill="#000000" fill-opacity="1"><g transform="translate(286.811755, 244.503423)"><g><path d="M 6.46875 -27.6875 C 5.34375 -27.6875 4.414062 -28.023438 3.6875 -28.703125 C 2.96875 -29.378906 2.609375 -30.234375 2.609375 -31.265625 C 2.609375 -32.296875 2.96875 -33.140625 3.6875 -33.796875 C 4.414062 -34.460938 5.34375 -34.796875 6.46875 -34.796875 C 7.601562 -34.796875 8.53125 -34.460938 9.25 -33.796875 C 9.976562 -33.140625 10.34375 -32.296875 10.34375 -31.265625 C 10.34375 -30.234375 9.976562 -29.378906 9.25 -28.703125 C 8.53125 -28.023438 7.601562 -27.6875 6.46875 -27.6875 Z M 3.390625 0 L 3.390625 -23.96875 L 9.5625 -23.96875 L 9.5625 0 Z M 3.390625 0 "/></g></g></g><g fill="#000000" fill-opacity="1"><g transform="translate(297.54064, 244.503423)"><g><path d="M 3.140625 0 L 3.140625 -23.96875 L 8.609375 -23.96875 L 9.078125 -19.90625 C 9.828125 -21.320312 10.898438 -22.445312 12.296875 -23.28125 C 13.703125 -24.125 15.351562 -24.546875 17.25 -24.546875 C 20.21875 -24.546875 22.519531 -23.609375 24.15625 -21.734375 C 25.800781 -19.867188 26.625 -17.132812 26.625 -13.53125 L 26.625 0 L 20.4375 0 L 20.4375 -12.953125 C 20.4375 -15.015625 20.019531 -16.59375 19.1875 -17.6875 C 18.351562 -18.78125 17.046875 -19.328125 15.265625 -19.328125 C 13.523438 -19.328125 12.097656 -18.710938 10.984375 -17.484375 C 9.878906 -16.265625 9.328125 -14.5625 9.328125 -12.375 L 9.328125 0 Z M 3.140625 0 "/></g></g></g></svg>